<svg xmlns="http://www.w3.org/2000/svg" width="96" height="96" viewBox="0 0 96 96"><defs><linearGradient id="g" x2=".2" y2="1"><stop stop-color="#ffefd0"/><stop offset=".48" stop-color="#c6d6e5"/><stop offset="1" stop-color="#34567b"/></linearGradient></defs><rect x="3" y="3" width="90" height="90" rx="23" fill="#0d1d30" stroke="#c6d6e5" stroke-opacity=".45"/><path d="M19 9h55" stroke="#f8e7b7" opacity=".4"/><g fill="url(#g)" stroke="#15243d" stroke-width="3" stroke-linejoin="round" stroke-linecap="round" transform="translate(9 8) scale(.8)"><ellipse cx="48" cy="68" rx="29" ry="12"/><ellipse cx="48" cy="56" rx="29" ry="12"/><ellipse cx="48" cy="43" rx="29" ry="12"/><circle cx="48" cy="32" r="20"/><path d="m48 20 8 12-8 12-8-12Z" fill="#fff2bd"/></g><g fill="#c6d6e5" stroke="#14263f"><g transform="translate(61 61) scale(.29)" stroke-width="7"><path d="M48 12Q76 49 76 61a28 25 0 0 1-56 0Q20 49 48 12Z"/><path d="M31 58q-2 13 11 16" fill="none" stroke="#edffff"/></g></g></svg>