<svg xmlns="http://www.w3.org/2000/svg" width="96" height="96" viewBox="0 0 96 96"><defs><linearGradient id="g" x2=".2" y2="1"><stop stop-color="#ffefd0"/><stop offset=".48" stop-color="#c6d6e5"/><stop offset="1" stop-color="#34567b"/></linearGradient></defs><rect x="3" y="3" width="90" height="90" rx="23" fill="#0d1d30" stroke="#c6d6e5" stroke-opacity=".45"/><path d="M19 9h55" stroke="#f8e7b7" opacity=".4"/><g fill="url(#g)" stroke="#15243d" stroke-width="3" stroke-linejoin="round" stroke-linecap="round" transform="translate(9 8) scale(.8)"><path d="M32 81 21 61l-7-17q-1-10 8-7l10 13V21q0-9 8-6l5 27V14q4-8 10 0l2 28 4-23q7-7 10 2l-3 24 8-16q8-4 9 4L74 63 65 81Z"/></g><g fill="#c6d6e5" stroke="#14263f"><g transform="translate(61 61) scale(.29)" stroke-width="7"><path d="M48 12Q76 49 76 61a28 25 0 0 1-56 0Q20 49 48 12Z"/><path d="M31 58q-2 13 11 16" fill="none" stroke="#edffff"/></g></g></svg>